<?xml version="1.0" encoding="iso-8859-1"?>
<!-- Generator: Adobe Illustrator 19.0.0, SVG Export Plug-In . SVG Version: 6.00 Build 0)  -->
<svg version="1.1" id="Capa_1" xmlns="http://www.w3.org/2000/svg" xmlns:xlink="http://www.w3.org/1999/xlink" x="0px" y="0px"
	 viewBox="0 0 512 512" style="enable-background:new 0 0 512 512;" xml:space="preserve">
<g>
	<g>
		<path d="M505.168,111.894L328.124,246.77l177.408,152.64c4.122-7.792,6.468-16.661,6.468-26.073V138.662
			C512,128.971,509.521,119.85,505.168,111.894z"/>
	</g>
</g>
<g>
	<g>
		<path d="M456.049,82.711H55.95c-11.013,0-21.286,3.211-29.953,8.729l220.786,165.473c5.532,4.06,12.944,4.068,18.485,0.027
			l218.79-166.682C475.815,85.468,466.251,82.711,456.049,82.711z"/>
	</g>
</g>
<g>
	<g>
		<path d="M303.725,265.359l-20.561,15.665c-8.109,5.987-17.616,8.981-27.119,8.981c-9.505,0-19.007-2.993-27.119-8.981
			l-0.087-0.064l-20.533-15.389L27.253,421.346c8.396,5.039,18.213,7.943,28.697,7.943h400.1c10.552,0,20.43-2.939,28.862-8.038
			L303.725,265.359z"/>
	</g>
</g>
<g>
	<g>
		<path d="M5.835,113.824C2.107,121.313,0,129.743,0,138.662v234.677c0,9.477,2.376,18.407,6.553,26.237l177.166-152.433
			L5.835,113.824z"/>
	</g>
</g>
<g>
</g>
<g>
</g>
<g>
</g>
<g>
</g>
<g>
</g>
<g>
</g>
<g>
</g>
<g>
</g>
<g>
</g>
<g>
</g>
<g>
</g>
<g>
</g>
<g>
</g>
<g>
</g>
<g>
</g>
</svg>
