<svg id="Layer_3" enable-background="new 0 0 64 64" height="512" viewBox="0 0 64 64" width="512" xmlns="http://www.w3.org/2000/svg"><g><path d="m62 13h-15v-7c0-.553-.448-1-1-1h-3v-3c0-.553-.448-1-1-1h-32c-.277 0-.527.112-.708.294l-7.998 7.998c-.182.181-.294.431-.294.708v48c0 .553.448 1 1 1h3v3c0 .553.448 1 1 1h40c.552 0 1-.447 1-1v-27h15c.552 0 1-.447 1-1v-20c0-.553-.448-1-1-1zm-17-6v6h-2v-6zm-36-2.586v4.586h-4.586zm-6 6.586h7c.552 0 1-.447 1-1v-7h30v10h-23c-.552 0-1 .447-1 1v20c0 .553.448 1 1 1h23v22h-38zm42 50h-38v-2h35c.552 0 1-.447 1-1v-23h2zm16-28h-42v-18h42z"/><path d="m5 13h10v2h-10z"/><path d="m5 17h10v2h-10z"/><path d="m5 21h10v2h-10z"/><path d="m5 25h10v2h-10z"/><path d="m5 29h10v2h-10z"/><path d="m13 5h26v2h-26z"/><path d="m13 9h26v2h-26z"/><path d="m10 52v-3c0-.266-.105-.52-.293-.707l-2.293-2.293 2.293-2.293c.188-.187.293-.441.293-.707v-3c0-.552.449-1 1-1h3v-2h-3c-1.654 0-3 1.346-3 3v2.586l-2.707 2.707c-.391.391-.391 1.023 0 1.414l2.707 2.707v2.586c0 1.654 1.346 3 3 3h3v-2h-3c-.551 0-1-.448-1-1z"/><path d="m36 42.586v-2.586c0-1.654-1.346-3-3-3h-3v2h3c.551 0 1 .448 1 1v3c0 .266.105.52.293.707l2.293 2.293-2.293 2.293c-.188.187-.293.441-.293.707v3c0 .552-.449 1-1 1h-3v2h3c1.654 0 3-1.346 3-3v-2.586l2.707-2.707c.391-.391.391-1.023 0-1.414z"/><path d="m24 31c1.654 0 3-1.346 3-3v-9h2v-2h-6v2h2v9c0 .552-.449 1-1 1s-1-.448-1-1v-2h-2v2c0 1.654 1.346 3 3 3z"/><path d="m33 27h4v4h2v-10c0-2.206-1.794-4-4-4s-4 1.794-4 4v10h2zm2-8c1.103 0 2 .897 2 2v4h-4v-4c0-1.103.897-2 2-2z"/><path d="m53 27h4v4h2v-10c0-2.206-1.794-4-4-4s-4 1.794-4 4v10h2zm2-8c1.103 0 2 .897 2 2v4h-4v-4c0-1.103.897-2 2-2z"/><path d="m44.293 30.707c.195.195.451.293.707.293s.512-.098.707-.293l3-3c.188-.187.293-.441.293-.707v-10h-2v9.586l-2 2-2-2v-9.586h-2v10c0 .266.105.52.293.707z"/><path d="m14.384 45h15.232v1.999h-15.232z" transform="matrix(.394 -.919 .919 .394 -28.946 48.114)"/><path d="m16.293 41.293-4 4c-.391.391-.391 1.023 0 1.414l4 4 1.414-1.414-3.293-3.293 3.293-3.293z"/><path d="m31.707 45.293-4-4-1.414 1.414 3.293 3.293-3.293 3.293 1.414 1.414 4-4c.391-.391.391-1.023 0-1.414z"/></g></svg>