<svg id="Layer_1" enable-background="new 0 0 511.499 511.499" height="512" viewBox="0 0 511.499 511.499" width="512" xmlns="http://www.w3.org/2000/svg"><g><path d="m406.779 194.248-60.709-15.28-27.417-31.582.554-8.29c1.115-16.674-11.499-31.095-28.173-32.21l-65.948-4.496s.698 5.697.826 7.337c10.982.663 21.393 5.572 28.879 13.711 14.977 16.285 15.101 41.536-.12 57.948l-35.673 38.467-1.251 18.712c-1.019 15.246-9.794 28.306-22.294 35.42l-.827 12.376.291.02c.005.186.004.371.014.558l4.319 86.659-47.782 103.051c-5.698 12.289-.355 26.869 11.934 32.567 12.285 5.697 26.868.356 32.566-11.933l50.329-108.543c1.673-3.607 2.443-7.566 2.245-11.538l-4.363-87.527 11.057.739 27.137 80.702 10.3 117.983c1.185 13.575 13.155 23.475 26.565 22.3 13.494-1.178 23.478-13.072 22.3-26.565l-10.554-120.896c-.169-1.936-.567-3.844-1.187-5.685l-21.622-64.299.675.045 5.932-88.721 4.634 5.337c2.742 3.159 6.389 5.401 10.445 6.421l66.941 16.849c10.948 2.756 22.054-3.887 24.808-14.831 2.756-10.944-3.885-22.051-14.831-24.806z"/><path d="m164.216 255.227 29.244-69.946 43.267-23.116-14.703 12.425-1.755 26.246 25.603-27.608c10.489-11.31 10.895-29.039.086-41.665-.299-.349-.602-.686-.91-1.01-7.212-7.612-18.792-9.137-28.041-4.196l-49.227 26.3c-4.152 2.218-7.41 5.801-9.226 10.143l-32.051 76.659c-4.354 10.414.559 22.386 10.973 26.74 10.368 4.336 22.367-.512 26.74-10.972z"/><path d="m170.78 267.591c19.65 1.282 33.865-12.949 34.994-29.825l3.504-52.404-4.293 3.628-29.64 70.89c-1.188 2.84-2.739 5.415-4.565 7.711z"/><path d="m147.427 158.147c1.307-2.061 3.031-12.716 14.67-16.129l51.233-17.27.648-9.687c1.115-16.674-11.499-31.095-28.173-32.21-36.496-3.597-35.211-3.668-37.89-3.668-15.791 0-29.092 12.253-30.161 28.241l-5.521 82.568c-12.236 3.243-21.552 13.981-22.438 27.229l-.462 6.916c-1.022 15.285 9.832 28.53 24.469 30.969-1.612-6.531-1.221-13.617 1.573-20.3z"/><path d="m271.216 89.488c24.684 1.65 46.031-17.021 47.682-41.705 1.65-24.684-17.021-46.031-41.705-47.682s-46.031 17.021-47.682 41.705c-1.65 24.684 17.022 46.031 41.705 47.682z"/></g></svg>